<svg xmlns="http://www.w3.org/2000/svg" width="142" height="140" fill="none" viewBox="0 0 142 140"><rect width="130.792" height="128.471" y="11.399" fill="#1D2939" rx="64.236" transform="rotate(-5 0 11.3993)"/><path fill="#F9FAFB" d="M22.7857 58.7401L22.8844 59.8821C22.5053 59.8435 22.1302 59.937 21.759 60.1627C21.3799 60.3863 21.1218 60.7638 20.9848 61.2951C20.8641 61.763 20.8986 62.1864 21.0885 62.5653C21.2783 62.9441 21.5715 63.1847 21.968 63.287C22.2773 63.3667 22.5626 63.3431 22.8237 63.2159C23.087 63.0808 23.3032 62.849 23.4725 62.5205L24.0714 61.3302C24.4021 60.6711 24.8268 60.2055 25.3453 59.9333C25.8558 59.659 26.4085 59.5986 27.0033 59.752C27.6853 59.928 28.2026 60.349 28.5552 61.0151C28.9078 61.6812 28.9726 62.4465 28.7496 63.3109C28.5061 64.2546 28.069 64.9327 27.4382 65.3451C26.8015 65.7476 26.1309 65.9045 25.4264 65.8158L25.358 64.6055C25.8778 64.6889 26.3572 64.6011 26.7961 64.3421C27.2351 64.0832 27.5323 63.6524 27.6878 63.0497C27.831 62.4945 27.8146 62.0336 27.6386 61.6667C27.4625 61.2999 27.1802 61.0664 26.7916 60.9661C26.4744 60.8843 26.1732 60.9208 25.888 61.0756C25.5948 61.2283 25.3514 61.4997 25.1578 61.8895L24.5862 63.0235C24.2897 63.6152 23.8952 64.0463 23.4025 64.3167C22.9098 64.5872 22.3581 64.6436 21.7475 64.4861C21.0813 64.3143 20.568 63.8943 20.2075 63.2261C19.8411 62.548 19.7571 61.8243 19.9556 61.055C20.1786 60.1906 20.5596 59.5826 21.0985 59.2311C21.6375 58.8795 22.1999 58.7159 22.7857 58.7401Z"/><path fill="#F9FAFB" d="M33.4699 51.445L31.0074 56.1325L23.2965 52.0816L25.759 47.3942L26.7487 47.9141L24.8461 51.5357L27.217 52.7813L28.9425 49.4968L29.943 50.0224L28.2176 53.3069L30.5776 54.5467L32.4802 50.9251L33.4699 51.445Z"/><path fill="#F9FAFB" d="M39.7019 43.4335L36.2306 47.4317L29.6534 41.7214L33.1247 37.7232L33.9689 38.4561L31.2869 41.5452L33.3092 43.301L35.7415 40.4994L36.595 41.2404L34.1627 44.042L36.1757 45.7897L38.8577 42.7006L39.7019 43.4335Z"/><path fill="#F9FAFB" d="M56.5702 32.564L55.4925 33.0726L52.5983 26.9398L52.8039 34.3414L51.804 34.8133L46.2433 29.9389L49.1376 36.0717L48.0599 36.5803L44.3425 28.7032L45.8201 28.0059L51.6229 33.1056L51.3974 25.3738L52.8528 24.6869L56.5702 32.564Z"/><path fill="#F9FAFB" d="M62.921 27.3363L59.1153 22.8835L60.5475 22.6593L63.3812 26.1451L65.014 21.9601L66.3734 21.7473L64.1105 27.1501L64.6862 30.8277L63.4967 31.0139L62.921 27.3363Z"/><path fill="#F9FAFB" d="M86.1919 31.0377L89.903 24.9336L91.0955 25.2766L86.3033 32.9617L85.1108 32.6187L84.8789 25.2018L80.766 31.3693L79.6089 31.0366L79.5958 21.9696L80.7883 22.3125L80.7457 29.3949L84.7317 23.4465L85.9478 23.7962L86.1919 31.0377Z"/><path fill="#F9FAFB" d="M97.9531 31.1041C97.1076 31.2452 96.3768 31.7599 95.7606 32.6482C95.1444 33.5365 94.9159 34.4047 95.0752 35.2528C95.2344 36.1009 95.6707 36.7724 96.384 37.2672C97.0974 37.762 97.8791 37.9355 98.7293 37.7876C99.5794 37.6398 100.313 37.1217 100.929 36.2334C101.545 35.3451 101.771 34.4803 101.607 33.6389C101.448 32.7908 101.012 32.1194 100.298 31.6245C99.585 31.1297 98.8033 30.9562 97.9531 31.1041ZM94.7512 31.948C95.1526 31.3693 95.62 30.911 96.1533 30.5733C96.6934 30.2402 97.2367 30.0389 97.7832 29.9695C98.3412 29.8981 98.8905 29.9252 99.4311 30.0511C99.9718 30.177 100.471 30.3986 100.929 30.7161C101.386 31.0335 101.769 31.4234 102.076 31.8857C102.383 32.348 102.598 32.8507 102.719 33.3937C102.852 33.9346 102.854 34.5139 102.725 35.1318C102.602 35.7543 102.34 36.3549 101.938 36.9336C101.406 37.7008 100.761 38.25 100.003 38.5813C99.2514 38.9173 98.5085 39.0399 97.774 38.9491C97.0396 38.8583 96.3662 38.6005 95.7538 38.1757C95.1415 37.7509 94.6641 37.2104 94.3218 36.5543C93.9795 35.8982 93.8308 35.1571 93.8756 34.3309C93.9271 33.5095 94.219 32.7151 94.7512 31.948Z"/><path fill="#F9FAFB" d="M105.91 47.4923L107.382 43.6862L106.551 42.6838L103.809 44.9577L103.032 44.0215L109.737 38.462L111.831 40.9871C112.343 41.605 112.561 42.2593 112.485 42.9502C112.421 43.6421 112.105 44.2233 111.537 44.6938C111.052 45.0963 110.515 45.2963 109.928 45.2938C109.347 45.2861 108.8 45.0692 108.287 44.6433L106.804 48.5704L105.91 47.4923ZM107.383 41.9937L108.56 43.4123C108.873 43.7906 109.228 44.0127 109.623 44.0787C110.024 44.1395 110.398 44.0261 110.745 43.7386C111.098 43.4459 111.282 43.0966 111.297 42.6908C111.318 42.2798 111.171 41.8852 110.858 41.5069L109.681 40.0883L107.383 41.9937Z"/><path fill="#F9FAFB" d="M111.726 57.5318L114.047 53.1779L112.318 52.6214L109.94 53.7426L109.426 52.6537L117.305 48.9389L117.818 50.0279L113.762 51.9403L119.557 53.7171L120.233 55.1505L115.176 53.5281L112.376 58.9097L111.726 57.5318Z"/><path fill="#F9FAFB" d="M70.2434 54.1294C70.4311 53.5559 71.2425 53.5559 71.4301 54.1294L75.3139 65.9976C75.3771 66.1907 75.5302 66.3409 75.7245 66.4004L87.9282 70.1363C88.5169 70.3166 88.5169 71.15 87.9282 71.3303L75.7245 75.0662C75.5302 75.1257 75.3771 75.2759 75.3139 75.469L71.4301 87.3372C71.2425 87.9107 70.4311 87.9107 70.2434 87.3372L66.3597 75.469C66.2965 75.2759 66.1434 75.1257 65.9491 75.0662L53.7454 71.3303C53.1567 71.15 53.1567 70.3166 53.7454 70.1363L65.9491 66.4004C66.1434 66.3409 66.2965 66.1907 66.3597 65.9976L70.2434 54.1294Z"/><path fill="#F9FAFB" d="M118.418 82.0226L118.328 80.8864C118.708 80.9219 119.086 80.8259 119.46 80.5984C119.843 80.3728 120.105 79.995 120.247 79.4649C120.372 78.9981 120.34 78.5768 120.152 78.2011C119.965 77.8253 119.672 77.588 119.275 77.4892C118.965 77.4122 118.678 77.4379 118.415 77.5665C118.15 77.7031 117.93 77.9355 117.758 78.2639L117.147 79.4537C116.81 80.1124 116.38 80.5792 115.857 80.8542C115.342 81.1313 114.786 81.1957 114.19 81.0474C113.507 80.8775 112.991 80.4622 112.642 79.8017C112.293 79.1412 112.234 78.3797 112.465 77.5173C112.717 76.5758 113.161 75.8973 113.798 75.4819C114.44 75.0763 115.115 74.9149 115.822 74.9979L115.881 76.2024C115.359 76.1234 114.877 76.2144 114.434 76.4756C113.992 76.7368 113.69 77.168 113.529 77.7693C113.381 78.3231 113.394 78.782 113.567 79.1459C113.741 79.5098 114.023 79.7401 114.412 79.8369C114.73 79.916 115.033 79.8774 115.321 79.7211C115.616 79.5667 115.863 79.2947 116.06 78.905L116.643 77.7716C116.946 77.1802 117.345 76.7479 117.842 76.4749C118.339 76.2018 118.894 76.1414 119.506 76.2936C120.173 76.4596 120.686 76.8738 121.042 77.5363C121.405 78.2087 121.484 78.9286 121.278 79.6961C121.048 80.5585 120.66 81.1667 120.116 81.5209C119.572 81.875 119.006 82.0423 118.418 82.0226Z"/><path fill="#F9FAFB" d="M107.651 88.996L110.173 84.3405L117.935 88.2933L115.412 92.9488L114.416 92.4415L116.365 88.8445L113.979 87.6291L112.211 90.8912L111.204 90.3783L112.971 87.1162L110.596 85.9064L108.647 89.5033L107.651 88.996Z"/><path fill="#F9FAFB" d="M101.392 96.6366L104.919 92.6873L111.575 98.3049L108.048 102.254L107.194 101.533L109.919 98.4819L107.872 96.7546L105.401 99.5219L104.537 98.793L107.008 96.0257L104.971 94.3063L102.246 97.3577L101.392 96.6366Z"/><path fill="#F9FAFB" d="M84.606 106.979L85.6882 106.48L88.6388 112.586L88.3882 105.235L89.3923 104.772L95.0205 109.644L92.0699 103.538L93.1522 103.039L96.9419 110.882L95.4581 111.566L89.5847 106.469L89.8573 114.147L88.3958 114.821L84.606 106.979Z"/><path fill="#F9FAFB" d="M78.4478 112.07L82.2639 116.527L80.8313 116.748L77.9896 113.259L76.3635 117.439L75.0037 117.649L77.258 112.254L76.6752 108.577L77.865 108.393L78.4478 112.07Z"/><path fill="#F9FAFB" d="M55.3737 108.503L51.595 114.605L50.3994 114.274L55.2772 106.59L56.4728 106.921L56.6461 114.299L60.829 108.13L61.9891 108.452L61.9293 117.474L60.7337 117.142L60.8335 110.095L56.7799 116.044L55.5606 115.706L55.3737 108.503Z"/><path fill="#F9FAFB" d="M43.6897 108.656C44.5467 108.513 45.2894 108.002 45.9178 107.122C46.5462 106.242 46.7819 105.384 46.6247 104.548C46.4675 103.712 46.0289 103.051 45.3088 102.566C44.5888 102.081 43.7979 101.913 42.9361 102.063C42.0743 102.213 41.3293 102.728 40.7008 103.608C40.0724 104.488 39.8392 105.342 40.0011 106.172C40.1583 107.008 40.5969 107.669 41.317 108.154C42.037 108.639 42.8279 108.806 43.6897 108.656ZM46.9368 107.808C46.5274 108.381 46.0518 108.836 45.51 109.172C44.9614 109.503 44.4101 109.704 43.8562 109.775C43.2908 109.849 42.7346 109.824 42.1876 109.703C41.6407 109.581 41.1362 109.365 40.6743 109.054C40.2124 108.743 39.8269 108.36 39.518 107.905C39.2091 107.45 38.9943 106.955 38.8736 106.419C38.7414 105.886 38.7424 105.314 38.8766 104.704C39.004 104.089 39.2725 103.495 39.6819 102.922C40.2246 102.162 40.8807 101.617 41.6501 101.286C42.4128 100.951 43.1658 100.826 43.9092 100.913C44.6526 100.999 45.3334 101.25 45.9515 101.666C46.5697 102.083 47.0505 102.614 47.394 103.26C47.7375 103.906 47.8845 104.636 47.8351 105.452C47.779 106.263 47.4795 107.048 46.9368 107.808Z"/><path fill="#F9FAFB" d="M35.8291 92.7238L34.3474 96.477L35.1917 97.4684L37.9637 95.2304L38.7523 96.1564L31.9752 101.628L29.8485 99.1306C29.3281 98.5196 29.1056 97.8732 29.181 97.1915C29.2448 96.5086 29.5634 95.9357 30.1369 95.4727C30.6276 95.0765 31.1703 94.8804 31.7651 94.8842C32.3534 94.8932 32.9078 95.1086 33.4282 95.5302L34.921 91.6575L35.8291 92.7238ZM34.3505 98.1475L33.1558 96.7446C32.8372 96.3705 32.4777 96.1504 32.0773 96.0843C31.6705 96.0234 31.2919 96.1344 30.9414 96.4173C30.5845 96.7055 30.3992 97.0498 30.3854 97.4502C30.3652 97.8559 30.5144 98.2458 30.833 98.6199L32.0278 100.023L34.3505 98.1475Z"/><path fill="#F9FAFB" d="M30.0308 83.0141L27.7197 87.3241L29.4643 87.8864L31.8522 86.7867L32.3756 87.8709L24.4642 91.5145L23.9408 90.4303L28.0136 88.5545L22.1674 86.7573L21.4784 85.3302L26.5802 86.9698L29.3685 81.6423L30.0308 83.0141Z"/></svg>